<svg width="38" height="38" viewBox="0 0 38 38" fill="none" xmlns="http://www.w3.org/2000/svg">
<g clip-path="url(#clip0_91_24)">
<path d="M26.2676 12.0017L15.8334 22.4358L10.1492 16.7675L7.91675 19L15.8334 26.9167L28.5001 14.25L26.2676 12.0017ZM19.0001 3.16666C10.2601 3.16666 3.16675 10.26 3.16675 19C3.16675 27.74 10.2601 34.8333 19.0001 34.8333C27.7401 34.8333 34.8334 27.74 34.8334 19C34.8334 10.26 27.7401 3.16666 19.0001 3.16666ZM19.0001 31.6667C12.0017 31.6667 6.33341 25.9983 6.33341 19C6.33341 12.0017 12.0017 6.33332 19.0001 6.33332C25.9984 6.33332 31.6667 12.0017 31.6667 19C31.6667 25.9983 25.9984 31.6667 19.0001 31.6667Z" fill="#287C00"/>
</g>
<defs>
<clipPath id="clip0_91_24">
<rect width="38" height="38" fill="white"/>
</clipPath>
</defs>
</svg>
