<svg width="38" height="38" viewBox="0 0 38 38" fill="none" xmlns="http://www.w3.org/2000/svg">
<g clip-path="url(#clip0_92_27)">
<path d="M23.1009 12.6667L19.0001 16.7675L14.8992 12.6667L12.6667 14.8992L16.7676 19L12.6667 23.1008L14.8992 25.3333L19.0001 21.2325L23.1009 25.3333L25.3334 23.1008L21.2326 19L25.3334 14.8992L23.1009 12.6667ZM19.0001 3.16666C10.2442 3.16666 3.16675 10.2442 3.16675 19C3.16675 27.7558 10.2442 34.8333 19.0001 34.8333C27.7559 34.8333 34.8334 27.7558 34.8334 19C34.8334 10.2442 27.7559 3.16666 19.0001 3.16666ZM19.0001 31.6667C12.0176 31.6667 6.33341 25.9825 6.33341 19C6.33341 12.0175 12.0176 6.33332 19.0001 6.33332C25.9826 6.33332 31.6667 12.0175 31.6667 19C31.6667 25.9825 25.9826 31.6667 19.0001 31.6667Z" fill="#8F0000"/>
</g>
<defs>
<clipPath id="clip0_92_27">
<rect width="38" height="38" fill="white"/>
</clipPath>
</defs>
</svg>
